<svg version="1.1" xmlns="http://www.w3.org/2000/svg" xmlns:xlink="http://www.w3.org/1999/xlink" width="47.99716" height="47.99716"><defs><linearGradient x1="14.22989" y1="14.22989" x2="54.98331" y2="54.98331" gradientUnits="userSpaceOnUse" id="color-1"><stop offset="0" stop-color="#000000" stop-opacity="0.3"></stop><stop offset="1" stop-color="#000000" stop-opacity="0"></stop></linearGradient><filter id="dropshadow-base"><feColorMatrix type="matrix" values="0 0 0 0 0  0 0 0 0 0  0 0 0 0 0  0 0 0 .8 0"></feColorMatrix> <feOffset dx="0" dy="1"></feOffset> <feGaussianBlur stdDeviation="1"></feGaussianBlur> <feComposite in="SourceGraphic"></feComposite></filter><filter id="dropshadow-banner" x="-10%" y="-10%" width="120%" height="130%"><feColorMatrix type="matrix" values="0 0 0 0 0  0 0 0 0 0  0 0 0 0 0  0 0 0 .4 0"></feColorMatrix> <feOffset dx="0" dy="1"></feOffset> <feGaussianBlur stdDeviation="0.5"></feGaussianBlur> <feComposite in="SourceGraphic"></feComposite></filter></defs><g transform="translate(-0.00142,-0.00142)"><g fill="none" fill-rule="nonzero" stroke="none" stroke-width="none" stroke-linecap="butt" stroke-linejoin="miter" stroke-miterlimit="10" stroke-dasharray="" stroke-dashoffset="0" font-family="none" font-weight="none" font-size="none" text-anchor="none" style="mix-blend-mode: normal"><path d="M2,24c0,-12.15026 9.84974,-22 22,-22c12.15026,0 22,9.84974 22,22c0,12.15026 -9.84974,22 -22,22c-12.15026,0 -22,-9.84974 -22,-22z" id="base 1 5" fill="#512da8" stroke-width="1"></path><path d="M14.22989,23.02299v-6.83908c0,-1.0796 0.87442,-1.95402 1.95402,-1.95402h6.83908l1.95402,1.95402v-1.95402h6.83908c0.5398,0 1.0283,0.21861 1.38186,0.57216l12.54853,12.54853c-1.4467,9.46755 -8.92835,16.94919 -18.39589,18.39589l-12.54853,-12.54853l0,0c-0.35356,-0.35356 -0.57216,-0.84206 -0.57216,-1.38186v-6.83908l1.95402,0z" fill="url(#color-1)" stroke-width="1"></path><path d="M16.18391,16.18391h6.83908v-1.95402h-6.83908c-1.0796,0 -1.95402,0.87442 -1.95402,1.95402v6.83908h1.95402zM22.04598,24.97701l-3.90804,4.88505h11.72413l-2.93103,-3.90804l-1.98333,2.6477zM28.88505,20.58046c0,-0.81092 -0.6546,-1.46552 -1.46552,-1.46552c-0.81092,0 -1.46552,0.6546 -1.46552,1.46552c0,0.81092 0.6546,1.46552 1.46552,1.46552c0.81092,0 1.46552,-0.6546 1.46552,-1.46552zM31.81609,14.22989h-6.83908v1.95402h6.83908v6.83908h1.95402v-6.83908c0,-1.0796 -0.87442,-1.95402 -1.95402,-1.95402zM31.81609,31.81609h-6.83908v1.95402h6.83908c1.0796,0 1.95402,-0.87442 1.95402,-1.95402v-6.83908h-1.95402zM16.18391,24.97701h-1.95402v6.83908c0,1.0796 0.87442,1.95402 1.95402,1.95402h6.83908v-1.95402h-6.83908z" fill="none" stroke-width="0"></path><path d="M16.18391,23.02299h-1.95402v-6.83908c0,-1.0796 0.87442,-1.95402 1.95402,-1.95402h6.83908v1.95402h-6.83908zM24.9477,28.60172l1.98333,-2.6477l2.93103,3.90804h-11.72413l3.90804,-4.88505zM27.41954,22.04598c-0.81092,0 -1.46552,-0.6546 -1.46552,-1.46552c0,-0.81092 0.6546,-1.46552 1.46552,-1.46552c0.81092,0 1.46552,0.6546 1.46552,1.46552c0,0.81092 -0.6546,1.46552 -1.46552,1.46552zM33.77011,16.18391v6.83908h-1.95402v-6.83908h-6.83908v-1.95402h6.83908c1.0796,0 1.95402,0.87442 1.95402,1.95402zM31.81609,24.97701h1.95402v6.83908c0,1.0796 -0.87442,1.95402 -1.95402,1.95402h-6.83908v-1.95402h6.83908zM16.18391,31.81609h6.83908v1.95402h-6.83908c-1.0796,0 -1.95402,-0.87442 -1.95402,-1.95402v-6.83908h1.95402z" fill="#ffffff" stroke-width="0"></path><path d="M2,24c0,-12.15026 9.84974,-22 22,-22c12.15026,0 22,9.84974 22,22c0,12.15026 -9.84974,22 -22,22c-12.15026,0 -22,-9.84974 -22,-22z" id="base 1 1 1" fill="none" stroke-width="1"></path><g fill="#000000" stroke-width="1" font-family="Roboto, sans-serif" font-weight="400" font-size="14" text-anchor="start"></g><rect x="2" y="2" width="44" height="22" fill="none" stroke-width="1"></rect><path d="M2,24v-22h44v22z" fill="none" stroke-width="1"></path><path d="M2,24v-22h44v22z" fill="none" stroke-width="1"></path><path d="M2,24v-22h44v22z" fill="none" stroke-width="1"></path><path d="M2,24v-22h44v22z" fill="none" stroke-width="1"></path></g></g></svg>